<svg width="29" height="28" viewBox="0 0 29 28" fill="none" xmlns="http://www.w3.org/2000/svg">
<g filter="url(#filter0_d_1_1172)">
<path d="M12 8C10.9 8 9.95833 7.60833 9.175 6.825C8.39167 6.04167 8 5.1 8 4C8 2.9 8.39167 1.95833 9.175 1.175C9.95833 0.391667 10.9 0 12 0C13.1 0 14.0417 0.391667 14.825 1.175C15.6083 1.95833 16 2.9 16 4C16 5.1 15.6083 6.04167 14.825 6.825C14.0417 7.60833 13.1 8 12 8V8M12 6C12.55 6 13.0208 5.80417 13.4125 5.4125C13.8042 5.02083 14 4.55 14 4C14 3.45 13.8042 2.97917 13.4125 2.5875C13.0208 2.19583 12.55 2 12 2C11.45 2 10.9792 2.19583 10.5875 2.5875C10.1958 2.97917 10 3.45 10 4C10 4.55 10.1958 5.02083 10.5875 5.4125C10.9792 5.80417 11.45 6 12 6V6M23.1 19.5L19.9 16.3C19.55 16.5 19.175 16.6667 18.775 16.8C18.375 16.9333 17.95 17 17.5 17C16.25 17 15.1875 16.5625 14.3125 15.6875C13.4375 14.8125 13 13.75 13 12.5C13 11.25 13.4375 10.1875 14.3125 9.3125C15.1875 8.4375 16.25 8 17.5 8C18.75 8 19.8125 8.4375 20.6875 9.3125C21.5625 10.1875 22 11.25 22 12.5C22 12.95 21.9333 13.375 21.8 13.775C21.6667 14.175 21.5 14.55 21.3 14.9L24.5 18.1L23.1 19.5V19.5M17.5 15C18.2 15 18.7917 14.7583 19.275 14.275C19.7583 13.7917 20 13.2 20 12.5C20 11.8 19.7583 11.2083 19.275 10.725C18.7917 10.2417 18.2 10 17.5 10C16.8 10 16.2083 10.2417 15.725 10.725C15.2417 11.2083 15 11.8 15 12.5C15 13.2 15.2417 13.7917 15.725 14.275C16.2083 14.7583 16.8 15 17.5 15V15M4 16V13.225C4 12.6583 4.14167 12.1333 4.425 11.65C4.70833 11.1667 5.1 10.8 5.6 10.55C6.45 10.1167 7.40833 9.75 8.475 9.45C9.54167 9.15 10.725 9 12.025 9C11.825 9.3 11.6542 9.62083 11.5125 9.9625C11.3708 10.3042 11.2583 10.6583 11.175 11.025C10.175 11.1083 9.28333 11.2792 8.5 11.5375C7.71667 11.7958 7.05833 12.0667 6.525 12.35C6.35833 12.4333 6.22917 12.5542 6.1375 12.7125C6.04583 12.8708 6 13.0417 6 13.225V14H11.175C11.2583 14.3667 11.3708 14.7167 11.5125 15.05C11.6542 15.3833 11.825 15.7 12.025 16H4V16M12 4V4V4V4V4V4V4V4V4V4M11.175 14V14V14V14V14V14V14V14V14V14" fill="#EC5B13"/>
</g>
<defs>
<filter id="filter0_d_1_1172" x="0" y="0" width="28.5" height="27.5" filterUnits="userSpaceOnUse" color-interpolation-filters="sRGB">
<feFlood flood-opacity="0" result="BackgroundImageFix"/>
<feColorMatrix in="SourceAlpha" type="matrix" values="0 0 0 0 0 0 0 0 0 0 0 0 0 0 0 0 0 0 127 0" result="hardAlpha"/>
<feOffset dy="4"/>
<feGaussianBlur stdDeviation="2"/>
<feComposite in2="hardAlpha" operator="out"/>
<feColorMatrix type="matrix" values="0 0 0 0 0 0 0 0 0 0 0 0 0 0 0 0 0 0 0.25 0"/>
<feBlend mode="normal" in2="BackgroundImageFix" result="effect1_dropShadow_1_1172"/>
<feBlend mode="normal" in="SourceGraphic" in2="effect1_dropShadow_1_1172" result="shape"/>
</filter>
</defs>
</svg>
